<svg width="46" height="46" viewBox="0 0 46 46" fill="none" xmlns="http://www.w3.org/2000/svg">
<path d="M5.75 9.58333C5.75 8.56667 6.15387 7.59165 6.87276 6.87276C7.59165 6.15387 8.56667 5.75 9.58333 5.75H15.87C16.2721 5.75031 16.6639 5.87707 16.99 6.11235C17.3161 6.34762 17.5599 6.6795 17.687 7.061L20.5582 15.6726C20.7036 16.1102 20.6864 16.5857 20.5097 17.0117C20.333 17.4376 20.0086 17.7856 19.596 17.9917L15.2701 20.1576C17.3905 24.8506 21.1494 28.6095 25.8424 30.7299L28.0082 26.404C28.2144 25.9914 28.5624 25.667 28.9883 25.4903C29.4143 25.3136 29.8898 25.2964 30.3274 25.4418L38.939 28.313C39.3208 28.4402 39.6529 28.6843 39.8882 29.0108C40.1235 29.3372 40.2501 29.7295 40.25 30.1319V36.4167C40.25 37.4333 39.8461 38.4084 39.1272 39.1272C38.4084 39.8461 37.4333 40.25 36.4167 40.25H34.5C18.6223 40.25 5.75 27.3777 5.75 11.5V9.58333Z" stroke="#E27A19" stroke-width="2" stroke-linecap="round" stroke-linejoin="round"/>
</svg>
