<svg width="36" height="26" viewBox="0 0 36 26" fill="none" xmlns="http://www.w3.org/2000/svg">
<path d="M31.7196 4.55369L17.9996 14.6512L4.27964 4.55369M2.66089 1.21119C2.19676 1.21119 1.75164 1.39556 1.42345 1.72375C1.09526 2.05194 0.910889 2.49706 0.910889 2.96119V22.7449C0.910889 23.2091 1.09526 23.6542 1.42345 23.9824C1.75164 24.3106 2.19676 24.4949 2.66089 24.4949H33.3384C33.8025 24.4949 34.2476 24.3106 34.5758 23.9824C34.904 23.6542 35.0884 23.2091 35.0884 22.7449V2.93494C35.0884 2.47081 34.904 2.02569 34.5758 1.6975C34.2476 1.36931 33.8025 1.18494 33.3384 1.18494H2.66089V1.21119Z" stroke="#BAA84B" stroke-width="1.5" stroke-linecap="round" stroke-linejoin="round"/>
</svg>
