<svg width="40" height="40" viewBox="0 0 40 40" fill="none" xmlns="http://www.w3.org/2000/svg">
<path d="M6.50827 33.1025C3.87818 30.4726 2.08705 27.1218 1.36139 23.4739C0.635724 19.826 1.00813 16.0448 2.4315 12.6085C3.85487 9.17226 6.26528 6.23526 9.35789 4.16896C12.4505 2.10265 16.0864 0.999841 19.8058 1M33.1033 6.50745C35.7334 9.13738 37.5246 12.4882 38.2502 16.1361C38.9759 19.784 38.6035 23.5652 37.1801 27.0015C35.7567 30.4377 33.3463 33.3747 30.2537 35.441C27.1611 37.5073 23.5252 38.6101 19.8058 38.61" stroke="#325C45" stroke-width="1.5" stroke-linecap="round" stroke-linejoin="round"/>
<path d="M30.2248 8.3696C31.9089 8.3696 33.2741 7.00438 33.2741 5.3203C33.2741 3.63621 31.9089 2.271 30.2248 2.271C28.5408 2.271 27.1755 3.63621 27.1755 5.3203C27.1755 7.00438 28.5408 8.3696 30.2248 8.3696Z" stroke="#325C45" stroke-width="1.5" stroke-linecap="round" stroke-linejoin="round"/>
<path d="M9.38695 37.339C11.071 37.339 12.4362 35.9737 12.4362 34.2897C12.4362 32.6056 11.071 31.2404 9.38695 31.2404C7.70287 31.2404 6.33765 32.6056 6.33765 34.2897C6.33765 35.9737 7.70287 37.339 9.38695 37.339Z" stroke="#325C45" stroke-width="1.5" stroke-linecap="round" stroke-linejoin="round"/>
<path d="M15.825 16.2359L18.8752 22.3354L29.0396 21.319L22.941 9.11987L15.825 16.2359Z" stroke="#325C45" stroke-width="1.5" stroke-linecap="round" stroke-linejoin="round"/>
<path d="M15.8251 16.236L11.7593 18.2688C10.5375 18.8793 10.6407 21.1137 11.2511 22.3355C11.8615 23.5574 13.5868 24.9788 14.8096 24.3684L18.8753 22.3355M17.9765 22.8544L20.5176 27.9365L18.4848 28.953L15.9437 23.8708" stroke="#325C45" stroke-width="1.5" stroke-linecap="round" stroke-linejoin="round"/>
</svg>
