<svg width="35" height="38" viewBox="0 0 35 38" fill="none" xmlns="http://www.w3.org/2000/svg">
<path d="M28.3333 18.0002V7.58183C28.3334 7.45027 28.3075 7.31998 28.2572 7.19844C28.2069 7.07689 28.133 6.96646 28.04 6.8735L22.7933 1.62683C22.6059 1.43924 22.3518 1.33373 22.0866 1.3335H2.66663C2.40141 1.3335 2.14706 1.43885 1.95952 1.62639C1.77198 1.81393 1.66663 2.06828 1.66663 2.3335V33.6668C1.66663 33.932 1.77198 34.1864 1.95952 34.3739C2.14706 34.5615 2.40141 34.6668 2.66663 34.6668H16.6666M8.33329 14.6668H21.6666M8.33329 8.00016H15M8.33329 21.3335H13.3333" stroke="#7767E0" stroke-width="1.5" stroke-linecap="round" stroke-linejoin="round"/>
<path d="M21.6666 1.3335V7.00016C21.6666 7.26538 21.772 7.51973 21.9595 7.70727C22.1471 7.89481 22.4014 8.00016 22.6666 8.00016H28.3333M28.32 23.2085L32.58 24.2902C33.0233 24.4035 33.335 24.8068 33.3216 25.2635C33.035 34.8602 27.5 36.3335 27.5 36.3335C27.5 36.3335 21.965 34.8602 21.6783 25.2635C21.6737 25.0413 21.7446 24.8242 21.8793 24.6474C22.014 24.4707 22.2045 24.3447 22.42 24.2902L26.68 23.2085C27.2183 23.0718 27.7816 23.0718 28.32 23.2085Z" stroke="#7767E0" stroke-width="1.5" stroke-linecap="round" stroke-linejoin="round"/>
</svg>
