<svg width="35" height="32" viewBox="0 0 35 32" fill="none" xmlns="http://www.w3.org/2000/svg">
<path d="M22.3529 29.125C24.6824 22.2288 27.2564 19.7406 34 17.875C27.2564 16.0094 24.6824 13.5212 22.3529 6.625C20.0235 13.5212 17.4495 16.0094 10.7059 17.875C17.4495 19.7406 20.0235 22.2288 22.3529 29.125ZM6.82353 12.25C7.98824 8.8 9.27524 7.55687 12.6471 6.625C9.27524 5.69313 7.98824 4.45 6.82353 1C5.65882 4.45 4.37182 5.69313 1 6.625C4.37182 7.55687 5.65882 8.8 6.82353 12.25ZM9.73529 31C10.3176 29.275 10.9602 28.6544 12.6471 28.1875C10.9602 27.7206 10.3176 27.1 9.73529 25.375C9.15294 27.1 8.51041 27.7206 6.82353 28.1875C8.51041 28.6544 9.15294 29.275 9.73529 31Z" stroke="#E27A19" stroke-width="2" stroke-linejoin="round"/>
</svg>
